<svg width="24" height="24" viewBox="0 0 24 24" fill="none" xmlns="http://www.w3.org/2000/svg">
<path fill-rule="evenodd" clip-rule="evenodd" d="M10 3C9.73478 3 9.48043 3.10536 9.29289 3.29289C9.10536 3.48043 9 3.73478 9 4V5H15V4C15 3.73478 14.8946 3.48043 14.7071 3.29289C14.5196 3.10536 14.2652 3 14 3H10ZM7 4V5H5H3C2.44772 5 2 5.44772 2 6C2 6.55228 2.44772 7 3 7H4V20C4 20.7957 4.31607 21.5587 4.87868 22.1213C5.44129 22.6839 6.20435 23 7 23H17C17.7957 23 18.5587 22.6839 19.1213 22.1213C19.6839 21.5587 20 20.7957 20 20V7H21C21.5523 7 22 6.55228 22 6C22 5.44772 21.5523 5 21 5H19H17V4C17 3.20435 16.6839 2.44129 16.1213 1.87868C15.5587 1.31607 14.7956 1 14 1H10C9.20435 1 8.44129 1.31607 7.87868 1.87868C7.31607 2.44129 7 3.20435 7 4ZM6 20V7H8H16H18V20C18 20.2652 17.8946 20.5196 17.7071 20.7071C17.5196 20.8946 17.2652 21 17 21H7C6.73478 21 6.48043 20.8946 6.29289 20.7071C6.10536 20.5196 6 20.2652 6 20ZM11 11C11 10.4477 10.5523 10 10 10C9.44772 10 9 10.4477 9 11V17C9 17.5523 9.44772 18 10 18C10.5523 18 11 17.5523 11 17V11Z" fill="#FE5858"/>
<path d="M14 11V17" stroke="#FE5858" stroke-width="2" stroke-linecap="round" stroke-linejoin="round"/>
</svg>
